<svg xmlns="http://www.w3.org/2000/svg" xmlns:xlink="http://www.w3.org/1999/xlink" viewBox="0 0 155.9 159.1"><path fill="none" stroke="#ffc952" stroke-width="4" stroke-miterlimit="10" d="M101.2 66.3v4.9"/><path fill="none" stroke="#2D2B43" stroke-width="4" stroke-miterlimit="10" d="M86.8 58.1v4.4c0 .3.1.5.2.8.1.2.3.5.5.7.2.2.4.4.7.5h25.6c.2 0 .5-.1.7-.2s.4-.3.6-.4c.2-.2.3-.4.4-.6.1-.2.2-.4.2-.7v-.3-.3-.3-.3-.8-.8-.8-.8M86.2 125.6v8.1l2.1.8 2.8.8 2.8.6 3.1.5h18.6v-11.7"/><path fill="none" stroke="#ffc952" stroke-width="4" stroke-miterlimit="10" d="M68.2 72.8h65.6c.1 0 1.5-.3 2.4.7.4.5.6 1 .6 1.3v17.6c-.1 2.4-.7 15.4-11.4 25.5-1.7 1.6-10.9 9.9-24.7 9.8-14.5-.1-27-9.5-32.3-21-2-4.4-2.6-8.5-2.8-11.3V74.7s-.2-1 .5-1.6c.3-.3.7-.4.9-.4l1.2.1zM120 29.3h4.3c1.4 1.2 2.3 3.9 2.2 6.7 0 2.6-.8 5-2.1 6.2H120"/><path fill="none" stroke="#ffc952" stroke-width="4" stroke-miterlimit="10" d="M34.4 52.9c-.5 0-1.1 0-1.6-.1s-1.1-.1-1.6-.2-1-.2-1.6-.4c-.5-.1-1-.3-1.5-.5l-1.5-.6c-.5-.2-1-.5-1.4-.7s-.9-.5-1.4-.9c-.4-.3-.9-.6-1.3-1-.4-.3-.8-.7-1.2-1.1-.4-.4-.7-.8-1.1-1.2s-.7-.8-1-1.2c-.3-.4-.6-.9-.9-1.3-.3-.4-.5-.9-.8-1.4s-.5-1-.7-1.4c-.2-.5-.4-1-.5-1.5s-.3-1-.4-1.5c-.1-.5-.2-1.1-.3-1.6-.1-.5-.1-1.1-.1-1.6v-1.6c0-.5.1-1.1.1-1.6.1-.5.2-1.1.3-1.6.1-.5.3-1.1.4-1.6s.3-1 .6-1.5c.2-.5.4-1 .7-1.5.2-.5.5-.9.8-1.4.3-.4.6-.9.9-1.3.3-.4.7-.8 1-1.2s.7-.8 1.1-1.1c.4-.4.8-.7 1.2-1 .4-.3.8-.6 1.3-.9s.9-.6 1.3-.8c.5-.3.9-.5 1.4-.7.2-.1.5-.2.7-.3s.5-.2.8-.3c.3-.1.5-.2.8-.3.3-.1.5-.2.8-.2.3-.1.5-.1.8-.2.3-.1.5-.1.8-.2.3 0 .5-.1.8-.1.3 0 .5 0 .8-.1H104.1c.3 0 .5 0 .8.1.3 0 .5.1.8.1.3 0 .5.1.8.1.3.1.5.1.8.2.3.1.5.1.8.2.3.1.5.1.8.2.2.1.5.2.7.3.2.1.5.2.7.3.2.1.5.2.7.3.2.1.5.2.7.4.2.1.5.3.7.4.5.3 1 .6 1.5 1 .5.3.9.7 1.4 1.1l1.2 1.2c.4.4.8.9 1.1 1.3s.7.9 1 1.4l.9 1.5s.5 1.1.7 1.6.4 1.1.6 1.7c0 .1 0 .1.1.2 0 .1 0 .1.1.2s0 .1.1.2V56.6H67.5c-.6.1-1.1.3-1.6.5s-1 .4-1.5.7c-.5.3-1 .6-1.4.9-.4.3-.9.7-1.3 1.1s-.8.8-1.1 1.2c-.3.4-.7.9-.9 1.4-.3.5-.5 1-.7 1.5-.2.5-.4 1.1-.5 1.6V96.7c0 .2.1.5.1.7 0 .2.1.5.1.7s.1.5.1.7c0 .2.1.5.1.7 0 .2.1.5.2.7.1.2.1.5.2.7.1.2.1.5.2.7.1.2.1.5.2.7l.6 2.1c.2.7.4 1.4.7 2 .2.7.5 1.3.8 2 .3.7.6 1.3.9 2 .3.6.6 1.3 1 1.9.3.6.7 1.3 1 1.9.4.6.7 1.2 1.1 1.8l1.2 1.8c.5.7 1.1 1.4 1.6 2.1.6.7 1.2 1.4 1.8 2s1.2 1.3 1.9 1.9c.6.6 1.3 1.2 2 1.8s1.4 1.1 2.1 1.7c.7.5 1.5 1 2.2 1.5.7.5 1.5 1 2.3 1.4.8.4 1.6.9 2.4 1.3.5.3 1.1.5 1.7.8.6.2 1.1.5 1.7.7.6.2 1.1.4 1.7.6.6.2 1.2.4 1.7.6.6.2 1.2.4 1.8.5.6.2 1.2.3 1.8.4.6.1 1.2.3 1.8.4l1.8.3h36.8c.3.1.6.2.8.3s.5.3.8.4c.2.2.5.3.7.5l.6.6c.2.2.3.5.5.7.1.2.3.5.4.8.1.3.2.6.2.8 0 .3.1.6.1.9 0 .3 0 .6-.1.9-.1.3-.1.6-.2.8s-.2.5-.4.8c-.1.2-.3.5-.5.7l-.6.6c-.2.2-.4.4-.7.5s-.5.3-.7.4-.5.2-.8.3H20.6c-.5-.1-1-.3-1.4-.5-.4-.2-.9-.5-1.3-.7s-.8-.6-1.1-1c-.3-.4-.6-.7-.9-1.1-.3-.4-.5-.8-.7-1.3s-.3-.9-.4-1.4c-.1-.5-.1-1-.1-1.5s.1-1 .2-1.5c.1-.2.1-.5.2-.7.1-.2.2-.5.3-.7s.2-.4.3-.7c.1-.2.2-.4.4-.6s.3-.4.4-.6c.2-.2.3-.4.5-.5s.4-.3.5-.5.4-.3.6-.4c.1-.1.2-.1.3-.2s.2-.1.3-.2c.1-.1.2-.1.3-.2.1-.1.2-.1.3-.1.1 0 .2-.1.3-.1s.2-.1.4-.1c.1 0 .2-.1.4-.1s.2-.1.4-.1c.1 0 .3-.1.4-.1H25.2c.1 0 .3 0 .4-.1.1 0 .3-.1.4-.1.1 0 .3-.1.4-.1.1 0 .3-.1.4-.2s.3-.1.4-.2c.1-.1.2-.2.4-.3l.3-.3.3-.3.3-.3s.2-.2.3-.4.2-.3.2-.4c.1-.1.1-.3.2-.4.1-.1.1-.3.2-.4.5-2.8 1-5.6 1.6-8.4.5-2.8 1-5.6 1.6-8.4.5-2.8 1-5.6 1.6-8.4.5-2.8 1-5.6 1.6-8.4.5-2.8 1-5.6 1.6-8.4.5-2.8 1-5.6 1.6-8.4.5-2.8 1-5.6 1.6-8.4.5-2.8 1-5.6 1.6-8.4.1-.3.2-.6.3-1 .1-.3.1-.7.1-1v-1c0-.3-.1-.7-.2-1l-.3-.9c-.1-.3-.3-.6-.5-.9-.2-.3-.4-.5-.6-.8s-.5-.5-.8-.6c-.2-.1-.4-.2-.5-.3-.2-.1-.4-.2-.6-.2s-.4-.1-.6-.2c-.2 0-.4-.1-.6-.1s-1.5.8-1.7.8H35c-.2-.1-.4-.1-.6-.1z"/><defs><path id="a" d="M72.2 70.7l.3 14.2c.1 1.3 1.2 2.2 2.4 2.2 1.1 0 2.1-.9 2.3-2v-2.9c.1-1.9 1.8-3.2 3.4-3 1.4.2 2.5 1.4 2.6 2.9-.1 6.2-.1 12.4-.2 18.5-.1 1.7 1.1 3.1 2.6 3.3 1.6.1 3.2-1.3 3.2-3.1V89.1c.2-1.3 1.2-2.2 2.5-2.3 1.3-.1 2.4.8 2.7 2-.3 2.2 1.3 3.8 2.7 3.8 1.4 0 2.9-1.7 2.6-3.8V70.7H72.2z"/></defs><clipPath id="b"><use xlink:href="#a" overflow="visible"/></clipPath><path clip-path="url(#b)" fill="#ECDC12" d="M69.7 70.5h32v4.4h-32z"/><path clip-path="url(#b)" fill="#E63742" d="M69.7 74.9h32v4.4h-32z"/><path clip-path="url(#b)" fill="#24A7DD" d="M69.7 79.2h32v4.4h-32z"/><path clip-path="url(#b)" fill="#55ADD8" d="M69.7 70.5h32v4.4h-32z"/><path clip-path="url(#b)" fill="#EF7870" d="M69.7 74.9h32v4.4h-32z"/><path clip-path="url(#b)" fill="#F9C155" d="M69.7 79.2h32v4.4h-32z"/><path clip-path="url(#b)" fill="#2D2D43" d="M69.7 83.6h32V88h-32z"/><path clip-path="url(#b)" fill="#55ADD8" d="M69.7 88h32v4.4h-32z"/><path clip-path="url(#b)" fill="#EF7870" d="M69.7 92.4h32v4.4h-32z"/><path clip-path="url(#b)" fill="#ECDC12" d="M69.7 96.7h32v4.4h-32z"/><path clip-path="url(#b)" fill="#E63742" d="M69.7 101.1h32v4.4h-32z"/><path clip-path="url(#b)" fill="#24A7DD" d="M69.7 105.5h32v4.4h-32z"/><path clip-path="url(#b)" fill="#F9C155" d="M69.7 96.7h32v4.4h-32z"/><path clip-path="url(#b)" fill="#2D2D43" d="M69.7 101.1h32v4.4h-32z"/><path clip-path="url(#b)" fill="#E5E5E4" d="M69.7 105.5h32v4.4h-32z"/><g><defs><path id="c" d="M117.7 70.8v4.3c0 .4 0 .8.1 1.2.3.8 1.2 1.7 2.1 1.7 1.2.1 2.5-1.2 2.6-3 .2-.7.7-1.2 1.3-1.3.8-.1 1.6.4 1.8 1.3v8.4c.2 1.1 1.2 1.9 2.3 1.9 1.1 0 2-.7 2.3-1.8V70.7"/></defs><clipPath id="d"><use xlink:href="#c" overflow="visible"/></clipPath><path clip-path="url(#d)" fill="#ECDC12" d="M108 58.2h35.3v4.1H108z"/><path clip-path="url(#d)" fill="#E63742" d="M108 62.4h35.3v4.1H108z"/><path clip-path="url(#d)" fill="#24A7DD" d="M108 66.5h35.3v4.1H108z"/><path clip-path="url(#d)" fill="#55ADD8" d="M108 70.7h35.3v4.1H108z"/><path clip-path="url(#d)" fill="#EF7870" d="M108 74.8h35.3v4.1H108z"/><path clip-path="url(#d)" fill="#F9C155" d="M108 79h35.3v4.1H108z"/><path clip-path="url(#d)" fill="#2D2D43" d="M108 83.1h35.3v4.1H108z"/><path clip-path="url(#d)" fill="#652D90" d="M108 87.3h35.3v4.1H108z"/><path clip-path="url(#d)" fill="#ECDC12" d="M108 91.4h35.3v4.1H108z"/><path clip-path="url(#d)" fill="#E63742" d="M108 95.6h35.3v4.1H108z"/><path clip-path="url(#d)" fill="#24A7DD" d="M108 99.7h35.3v4.1H108z"/><path clip-path="url(#d)" fill="#652D90" d="M108 103.9h35.3v4.1H108z"/></g></svg>